<svg width="32" height="32" viewBox="0 0 32 32" fill="none" xmlns="http://www.w3.org/2000/svg">
<rect width="32" height="32" fill="#4F5B3F"/>
<path d="M14.9965 18.8715L15.1036 18.0326C15.1272 17.9019 15.2313 17.8365 15.4159 17.8365C15.6003 17.8365 15.6925 17.8901 15.6925 17.9971L15.5496 20.4776C15.5496 20.5727 15.4574 20.6202 15.273 20.6202C15.0887 20.6202 14.9965 20.5727 14.9965 20.4776V20.0493C13.8305 20.5133 12.6883 20.7453 11.57 20.7453C9.52372 20.7453 7.82242 20.2308 6.46611 19.2016C5.1098 18.1724 4.43164 16.7477 4.43164 14.9274C4.43164 13.5592 4.78856 12.3606 5.50241 11.3314C6.21626 10.3025 7.12039 9.5411 8.2148 9.04731C9.30945 8.55353 10.4308 8.30664 11.5789 8.30664C12.7269 8.30664 13.753 8.53865 14.6572 9.00265V8.59206C14.6572 8.48498 14.7435 8.43144 14.916 8.43144C15.0886 8.43144 15.1748 8.48498 15.1748 8.59206C15.1748 9.55576 15.2343 10.4363 15.3532 11.2335C15.3771 11.3524 15.2878 11.4119 15.0855 11.4119C14.8834 11.4119 14.7763 11.3524 14.7643 11.2335L14.6217 10.3947C13.6937 9.53803 12.5843 9.10973 11.2935 9.10973C10.0026 9.10973 8.90502 9.58258 8.00065 10.5283C7.09652 11.4743 6.64445 12.8128 6.64445 14.5437C6.64445 16.2749 7.12335 17.6075 8.08113 18.5414C9.03892 19.4753 10.2376 19.9423 11.6771 19.9423C12.8429 19.9423 13.9494 19.5853 14.9965 18.8715Z" fill="#F8F3ED"/>
<path fill-rule="evenodd" clip-rule="evenodd" d="M18.538 8.30664L20.7867 8.34209H22.8389C24.4093 8.34209 25.5902 8.64548 26.3813 9.25225C27.1724 9.85902 27.568 10.5997 27.568 11.4743C27.568 12.3486 27.2052 13.1278 26.4795 13.8119C25.7538 14.496 24.8258 14.838 23.6955 14.838C23.0769 14.838 22.4405 14.6952 21.7862 14.4097V18.1574C21.7862 19.2043 21.911 19.7277 22.1606 19.7277H23.1959C23.3148 19.7277 23.3742 19.826 23.3742 20.0224C23.3742 20.2186 23.3148 20.3167 23.1959 20.3167H22.4283L21.661 20.299H20.9473L18.4487 20.3525C18.3537 20.3525 18.3062 20.2513 18.3062 20.049C18.3062 19.8469 18.3537 19.7458 18.4487 19.7458H19.2163C19.5137 19.7458 19.71 19.6893 19.8053 19.5763C19.9003 19.4631 19.9478 19.2459 19.9478 18.9247V10.4659C19.9478 9.41901 19.8229 8.89556 19.573 8.89556H18.538C18.4428 8.89556 18.3952 8.79735 18.3952 8.60092C18.3952 8.40473 18.4428 8.30664 18.538 8.30664ZM24.8734 13.2676C24.3618 13.7198 23.648 13.9459 22.7318 13.9459C22.4224 13.9459 22.1072 13.9102 21.7862 13.8389V9.87699C21.7862 9.56757 21.8366 9.35341 21.9376 9.23452C22.0387 9.11562 22.2023 9.05618 22.4283 9.05618C23.4634 9.05618 24.2576 9.30898 24.8109 9.81458C25.3641 10.3202 25.6406 10.9091 25.6406 11.5814C25.6406 12.2534 25.3849 12.8155 24.8734 13.2676Z" fill="#F8F3ED"/>
<rect x="5.5542" y="24.292" width="20.7148" height="1.69309" fill="#F8F3ED"/>
</svg>
