<svg width="24" height="24" viewBox="0 0 24 24" fill="none" xmlns="http://www.w3.org/2000/svg">
<path d="M19.5 3.375H4.5C4.20163 3.375 3.91548 3.49353 3.7045 3.7045C3.49353 3.91548 3.375 4.20163 3.375 4.5V19.5C3.375 19.7984 3.49353 20.0845 3.7045 20.2955C3.91548 20.5065 4.20163 20.625 4.5 20.625H19.5C19.7984 20.625 20.0845 20.5065 20.2955 20.2955C20.5065 20.0845 20.625 19.7984 20.625 19.5V4.5C20.625 4.20163 20.5065 3.91548 20.2955 3.7045C20.0845 3.49353 19.7984 3.375 19.5 3.375ZM4.125 19.5V4.5C4.125 4.40054 4.16451 4.30516 4.23484 4.23484C4.30516 4.16451 4.40054 4.125 4.5 4.125H19.5C19.5995 4.125 19.6948 4.16451 19.7652 4.23484C19.8355 4.30516 19.875 4.40054 19.875 4.5V12.6562L16.9209 9.70125C16.8164 9.59637 16.6922 9.51315 16.5555 9.45637C16.4187 9.39959 16.2721 9.37036 16.1241 9.37036C15.976 9.37036 15.8294 9.39959 15.6926 9.45637C15.5559 9.51315 15.4317 9.59637 15.3272 9.70125L5.15625 19.875H4.5C4.40054 19.875 4.30516 19.8355 4.23484 19.7652C4.16451 19.6948 4.125 19.5995 4.125 19.5ZM19.5 19.875H6.21937L15.8597 10.2347C15.8945 10.1998 15.9359 10.1722 15.9814 10.1533C16.0269 10.1344 16.0757 10.1247 16.125 10.1247C16.1743 10.1247 16.2231 10.1344 16.2686 10.1533C16.3141 10.1722 16.3555 10.1998 16.3903 10.2347L19.875 13.7194V19.5C19.875 19.5995 19.8355 19.6948 19.7652 19.7652C19.6948 19.8355 19.5995 19.875 19.5 19.875ZM9 10.875C9.37084 10.875 9.73335 10.765 10.0417 10.559C10.35 10.353 10.5904 10.0601 10.7323 9.71753C10.8742 9.37492 10.9113 8.99792 10.839 8.63421C10.7666 8.27049 10.588 7.9364 10.3258 7.67417C10.0636 7.41195 9.72951 7.23337 9.36579 7.16103C9.00208 7.08868 8.62508 7.12581 8.28247 7.26773C7.93986 7.40964 7.64702 7.64996 7.44099 7.95831C7.23497 8.26665 7.125 8.62916 7.125 9C7.125 9.49728 7.32254 9.97419 7.67417 10.3258C8.02581 10.6775 8.50272 10.875 9 10.875ZM9 7.875C9.2225 7.875 9.44001 7.94098 9.62502 8.0646C9.81002 8.18821 9.95422 8.36391 10.0394 8.56948C10.1245 8.77505 10.1468 9.00125 10.1034 9.21948C10.06 9.43771 9.95283 9.63816 9.7955 9.7955C9.63816 9.95283 9.43771 10.06 9.21948 10.1034C9.00125 10.1468 8.77505 10.1245 8.56948 10.0394C8.36391 9.95422 8.18821 9.81002 8.0646 9.62502C7.94098 9.44001 7.875 9.2225 7.875 9C7.875 8.70163 7.99353 8.41548 8.2045 8.2045C8.41548 7.99353 8.70163 7.875 9 7.875Z" fill="#F3F3F3"/>
</svg>
