<svg width="126" height="18" viewBox="0 0 126 18" fill="none" xmlns="http://www.w3.org/2000/svg">
<path d="M4.70608 5.35828L4.75292 4.99127C4.76326 4.93408 4.80882 4.90549 4.88958 4.90549C4.97025 4.90549 5.01058 4.92891 5.01058 4.97576L4.94806 6.06098C4.94806 6.10255 4.90773 6.12334 4.82707 6.12334C4.74641 6.12334 4.70608 6.10255 4.70608 6.06098V5.87359C4.19594 6.07659 3.69625 6.17809 3.207 6.17809C2.31176 6.17809 1.56744 5.95296 0.974059 5.5027C0.380676 5.05244 0.0839844 4.42912 0.0839844 3.63273C0.0839844 3.03417 0.240137 2.50976 0.552444 2.0595C0.864752 1.60934 1.26031 1.27625 1.73911 1.06021C2.21801 0.844184 2.7086 0.73617 3.21088 0.73617C3.71316 0.73617 4.16207 0.837673 4.55763 1.04067V0.861041C4.55763 0.814195 4.59537 0.790771 4.67087 0.790771C4.74636 0.790771 4.7841 0.814195 4.7841 0.861041C4.7841 1.28266 4.81011 1.66787 4.86213 2.01669C4.87257 2.0687 4.83353 2.09471 4.74501 2.09471C4.65659 2.09471 4.60975 2.0687 4.60447 2.01669L4.54212 1.64967C4.13612 1.2749 3.65075 1.08752 3.08601 1.08752C2.52127 1.08752 2.04107 1.29439 1.64542 1.70815C1.24986 2.12201 1.05208 2.70759 1.05208 3.46489C1.05208 4.22229 1.2616 4.80528 1.68063 5.21387C2.09966 5.62245 2.62406 5.82675 3.25385 5.82675C3.76388 5.82675 4.24796 5.67059 4.70608 5.35828ZM10.4289 0.822109L11.4127 0.837618H12.3105C12.9976 0.837618 13.5142 0.967763 13.8603 1.22805C14.2065 1.48835 14.3796 1.79807 14.3796 2.15723C14.3796 2.51628 14.2521 2.80904 13.997 3.03552C13.7419 3.26189 13.4167 3.41934 13.0211 3.50786C12.5942 3.5547 12.3326 3.57813 12.2364 3.57813C12.1401 3.57813 12.0113 3.56251 11.8499 3.53128V5.13181C11.8499 5.58983 11.9046 5.81884 12.0139 5.81884H12.4667C12.5084 5.81884 12.5292 5.86181 12.5292 5.94774C12.5292 6.03358 12.5084 6.07649 12.4667 6.07649L11.4829 6.06874L10.39 6.09216C10.3483 6.09216 10.3275 6.0479 10.3275 5.95937C10.3275 5.87096 10.3483 5.82675 10.39 5.82675H10.7256C10.8557 5.82675 10.9416 5.80203 10.9833 5.7526C11.025 5.70306 11.0458 5.60803 11.0458 5.46749V1.76679C11.0458 1.30877 10.9912 1.07976 10.8818 1.07976H10.4289C10.3873 1.07976 10.3665 1.03679 10.3665 0.950857C10.3665 0.865024 10.3873 0.822109 10.4289 0.822109ZM12.2638 3.28929C12.6645 3.28929 12.9768 3.19038 13.2006 2.99255C13.4245 2.79472 13.5364 2.55009 13.5364 2.25867C13.5364 1.96715 13.4167 1.7095 13.1771 1.48571C12.9377 1.26192 12.5968 1.15003 12.1544 1.15003C11.9514 1.15003 11.8499 1.2567 11.8499 1.47004V3.24245C11.9905 3.27368 12.1284 3.28929 12.2638 3.28929ZM15.1292 5.53C15.1604 5.50394 15.1916 5.50524 15.2227 5.53388C15.2539 5.56253 15.2696 5.58336 15.2696 5.59639C15.2696 5.60942 15.267 5.62111 15.2618 5.63145C15.0068 5.99588 14.7231 6.17809 14.4108 6.17809C14.1922 6.17809 13.9918 6.1026 13.8096 5.95162C13.6275 5.80064 13.4727 5.61067 13.3451 5.38171C13.2175 5.15265 13.0939 4.91842 12.9743 4.67901C12.6776 4.07001 12.3939 3.70046 12.1233 3.57037L12.6229 3.47668C12.8623 3.51825 13.0718 3.62492 13.2514 3.79669C13.431 3.96846 13.5754 4.15977 13.6847 4.37063C13.794 4.58139 13.8981 4.79091 13.997 4.99918C14.2312 5.48843 14.4863 5.73306 14.7622 5.73306C14.861 5.73306 14.9834 5.66537 15.1292 5.53ZM22.8273 6.07649L21.8592 6.06874L20.7817 6.09216C20.7402 6.09216 20.7194 6.0479 20.7194 5.95937C20.7194 5.87096 20.7402 5.82675 20.7817 5.82675H21.1174C21.2476 5.82675 21.3335 5.80203 21.3751 5.7526C21.4167 5.70306 21.4376 5.60803 21.4376 5.46749V3.71866C21.4427 3.50522 20.9196 2.78955 19.8682 1.57165C19.6965 1.36865 19.5637 1.23457 19.47 1.16942C19.3763 1.10437 19.2905 1.07185 19.2124 1.07185H18.9626C18.9261 1.07185 18.9079 1.03023 18.9079 0.94698C18.9079 0.863732 18.9261 0.822109 18.9626 0.822109L19.9307 0.837618L21.0316 0.822109C21.0785 0.822109 21.1019 0.865024 21.1019 0.950857C21.1019 1.03679 21.0785 1.07976 21.0316 1.07976H20.4851C20.4851 1.10055 20.5788 1.22284 20.7662 1.44662C21.3699 2.15449 21.7707 2.71142 21.9685 3.11742H21.992C22.1013 2.93004 22.3342 2.61385 22.6906 2.16886C23.0472 1.72387 23.2476 1.45712 23.2919 1.36859C23.3361 1.28007 23.3583 1.21239 23.3583 1.16554C23.3583 1.10308 23.3296 1.07185 23.2723 1.07185H22.9678C22.921 1.07185 22.8975 1.03023 22.8975 0.94698C22.8975 0.863732 22.921 0.822109 22.9678 0.822109L23.8892 0.837618L24.7557 0.822109C24.8078 0.822109 24.8339 0.865024 24.8339 0.950857C24.8339 1.03679 24.8078 1.07976 24.7557 1.07976H24.5606C24.4305 1.07976 24.3186 1.12138 24.2249 1.20463C23.845 1.52211 23.4143 1.95154 22.9328 2.49291C22.4513 3.03417 22.2105 3.39333 22.2105 3.57037V5.25668C22.2105 5.63145 22.2652 5.81884 22.3745 5.81884H22.8273C22.869 5.81884 22.8898 5.86181 22.8898 5.94774C22.8898 6.03358 22.869 6.07649 22.8273 6.07649ZM32.5243 4.72198C32.5243 5.15653 32.3395 5.50787 31.97 5.77602C31.6004 6.04407 31.1918 6.17809 30.7441 6.17809C30.2965 6.17809 29.901 6.10002 29.5574 5.94386L29.62 6.09992C29.6356 6.13115 29.6238 6.16109 29.5847 6.18973C29.5458 6.21838 29.5028 6.2327 29.456 6.2327C29.4092 6.2327 29.3779 6.21967 29.3623 6.19361C29.1957 5.77199 29.0942 5.28274 29.0578 4.72586C29.0578 4.67384 29.0994 4.64784 29.1827 4.64784C29.2659 4.64784 29.3102 4.66604 29.3155 4.70244C29.4299 5.09799 29.6615 5.41547 30.0102 5.65488C30.2237 5.80586 30.4722 5.88135 30.7559 5.88135C31.0396 5.88135 31.2686 5.7994 31.4429 5.63549C31.6173 5.47147 31.7045 5.27364 31.7045 5.04199C31.7045 4.81045 31.6446 4.60228 31.525 4.41748C31.4052 4.23268 31.2569 4.08304 31.0799 3.96857C30.9029 3.85398 30.7103 3.73294 30.5021 3.60543C30.294 3.47792 30.1013 3.35563 29.9243 3.23857C29.7474 3.1214 29.5991 2.9639 29.4794 2.76607C29.3597 2.56835 29.2998 2.34456 29.2998 2.09471C29.2998 1.71477 29.4703 1.39336 29.8112 1.13048C30.1521 0.867608 30.5802 0.73617 31.0955 0.73617C31.3297 0.73617 31.5483 0.767402 31.7513 0.829863L31.845 0.853287C31.8242 0.770039 31.8125 0.7128 31.8099 0.68157C31.8074 0.650339 31.8177 0.628207 31.8411 0.615177C31.8646 0.602147 31.901 0.595631 31.9505 0.595631C31.9999 0.595631 32.0324 0.616471 32.048 0.658146C32.1678 1.07976 32.2381 1.49357 32.2589 1.89957C32.2432 1.9308 32.2003 1.94642 32.13 1.94642C32.0597 1.94642 32.0168 1.93861 32.0012 1.92299C31.9439 1.70955 31.8632 1.53385 31.7592 1.39589C31.6551 1.25794 31.5405 1.16296 31.4156 1.11094C31.2907 1.05893 31.1449 1.03291 30.9783 1.03291C30.6557 1.03291 30.4254 1.11487 30.2874 1.27878C30.1495 1.4428 30.0805 1.62237 30.0805 1.81751C30.0805 2.01276 30.1261 2.17931 30.2172 2.31716C30.3083 2.45511 30.4254 2.57486 30.5685 2.67641C30.7116 2.77786 30.8691 2.87673 31.0409 2.973C31.2126 3.06928 31.3857 3.17207 31.56 3.28138C31.7344 3.39069 31.8945 3.51044 32.0403 3.64064C32.3629 3.92689 32.5243 4.28734 32.5243 4.72198ZM42.2681 0.673659L42.3306 1.86824C42.3306 1.90991 42.2889 1.93075 42.2056 1.93075C42.1223 1.93075 42.0781 1.90733 42.073 1.86048C42.0105 1.52211 41.9038 1.32951 41.7528 1.28266C41.4873 1.21503 41.0527 1.17599 40.449 1.16554C40.3449 1.17082 40.2746 1.19946 40.2382 1.25148C40.2017 1.30349 40.1834 1.39461 40.1834 1.5248V5.13181C40.1834 5.58983 40.2381 5.81884 40.3474 5.81884H40.8004C40.8419 5.81884 40.8627 5.86181 40.8627 5.94774C40.8627 6.03358 40.8419 6.07649 40.8004 6.07649L39.8166 6.06874L38.7235 6.09216C38.6819 6.09216 38.6611 6.0479 38.6611 5.95937C38.6611 5.87096 38.6819 5.82675 38.7235 5.82675H39.0591C39.1893 5.82675 39.2752 5.80203 39.3168 5.7526C39.3585 5.70306 39.3793 5.60803 39.3793 5.46749V1.85272C39.3793 1.3946 39.3272 1.16554 39.2231 1.16554H39.0591C38.5439 1.16554 38.1275 1.20458 37.81 1.28266C37.6591 1.32951 37.5524 1.52211 37.4899 1.86048C37.4847 1.90733 37.4404 1.93075 37.3572 1.93075C37.2739 1.93075 37.2323 1.90991 37.2323 1.86824L37.2946 0.673659C37.2946 0.626813 37.3363 0.603389 37.4197 0.603389C37.5029 0.603389 37.5445 0.626813 37.5445 0.673659V0.822109C37.8985 0.832451 38.2239 0.837618 38.5206 0.837618H40.8549C41.2766 0.837618 41.6643 0.832451 42.0182 0.822109V0.673659C42.0182 0.626813 42.0599 0.603389 42.1432 0.603389C42.2265 0.603389 42.2681 0.626813 42.2681 0.673659ZM51.8168 6.07649L50.8251 6.06874L49.8336 6.09216C49.7867 6.09216 49.7633 6.0479 49.7633 5.95937C49.7633 5.87096 49.7867 5.82675 49.8336 5.82675H50.2786C50.3879 5.82675 50.4426 5.78249 50.4426 5.69396C50.4426 5.65756 50.3437 5.34655 50.146 4.76092C49.9482 4.17539 49.8258 3.80977 49.779 3.66406H48.3658C47.9962 4.84039 47.8114 5.51961 47.8114 5.70172C47.8114 5.7798 47.8271 5.81884 47.8583 5.81884H48.4204C48.4777 5.81884 48.5064 5.86181 48.5064 5.94774C48.5064 6.03358 48.4725 6.07649 48.4048 6.07649L47.3977 6.06874L46.5311 6.09216C46.4842 6.09216 46.4608 6.0479 46.4608 5.95937C46.4608 5.87096 46.4842 5.82675 46.5311 5.82675H46.9214C47.0359 5.82675 47.1218 5.76946 47.179 5.65488C47.3976 5.18124 47.6748 4.47596 48.0106 3.53904C48.3463 2.60221 48.5753 1.98153 48.6976 1.67697C48.82 1.37253 48.8811 1.20334 48.8811 1.16942C48.8811 1.1356 48.8707 1.09791 48.8498 1.05634C48.829 1.01466 48.8186 0.988602 48.8186 0.978157C48.8186 0.936585 48.8564 0.915798 48.9319 0.915798C49.0074 0.915798 49.0776 0.897546 49.1427 0.861041C49.2077 0.824639 49.2506 0.783017 49.2714 0.73617C49.3287 0.621692 49.3808 0.564453 49.4276 0.564453C49.4484 0.564453 49.4849 0.642532 49.537 0.798686L51.1062 5.03812C51.304 5.5586 51.442 5.81884 51.52 5.81884H51.8011C51.8531 5.81884 51.8791 5.86181 51.8791 5.94774C51.8791 6.03358 51.8583 6.07649 51.8168 6.07649ZM49.1075 1.634H49.0763C48.915 2.05045 48.712 2.623 48.4673 3.35165H49.6696C49.3209 2.29507 49.1335 1.72253 49.1075 1.634ZM57.7895 0.829863L58.8826 0.80644C58.9242 0.80644 58.945 0.850699 58.945 0.939221C58.945 1.02764 58.9242 1.07185 58.8826 1.07185H58.5468C58.4167 1.07185 58.3308 1.09657 58.2891 1.146C58.2476 1.19553 58.2268 1.29057 58.2268 1.43111V5.76423H58.6796C59.5072 5.76423 60.0797 5.65492 60.3972 5.43631L60.4518 5.00694C60.4623 4.96526 60.5078 4.94442 60.5885 4.94442C60.6691 4.94442 60.7095 4.96004 60.7095 4.99127L60.6392 6.24836C60.6392 6.28477 60.5989 6.30297 60.5182 6.30297C60.4375 6.30297 60.3972 6.28477 60.3972 6.24836V6.07649H57.8598L56.7666 6.09216C56.7251 6.09216 56.7043 6.0479 56.7043 5.95937C56.7043 5.87096 56.7251 5.82675 56.7666 5.82675H57.1025C57.2326 5.82675 57.3184 5.80203 57.3601 5.7526C57.4017 5.70306 57.4225 5.60803 57.4225 5.46749V1.76679C57.4225 1.30877 57.3678 1.07976 57.2585 1.07976H56.8057C56.764 1.07976 56.7432 1.03679 56.7432 0.950857C56.7432 0.865024 56.764 0.822109 56.8057 0.822109C56.8057 0.822109 57.1337 0.824693 57.7895 0.829863ZM72.3974 0.822109L73.3812 0.837618H74.279C74.9661 0.837618 75.4827 0.970351 75.8288 1.23581C76.1749 1.50128 76.348 1.82532 76.348 2.20795C76.348 2.59048 76.1892 2.93138 75.8718 3.23066C75.5543 3.52993 75.1483 3.67958 74.6538 3.67958C74.3831 3.67958 74.1047 3.61711 73.8184 3.49219V5.13181C73.8184 5.58983 73.8731 5.81884 73.9823 5.81884H74.4352C74.4872 5.81884 74.5132 5.86181 74.5132 5.94774C74.5132 6.03358 74.4872 6.07649 74.4352 6.07649H74.0994L73.7637 6.06874H73.4514L72.3583 6.09216C72.3167 6.09216 72.2959 6.0479 72.2959 5.95937C72.2959 5.87096 72.3167 5.82675 72.3583 5.82675H72.6941C72.8242 5.82675 72.9101 5.80203 72.9518 5.7526C72.9934 5.70306 73.0142 5.60803 73.0142 5.46749V1.76679C73.0142 1.30877 72.9595 1.07976 72.8502 1.07976H72.3974C72.3557 1.07976 72.3349 1.03679 72.3349 0.950857C72.3349 0.865024 72.3557 0.822109 72.3974 0.822109ZM74.2321 3.28929C74.633 3.28929 74.9453 3.19038 75.1691 2.99255C75.3929 2.79472 75.5048 2.5488 75.5048 2.2548C75.5048 1.96069 75.3838 1.70304 75.1418 1.48183C74.8997 1.26063 74.5522 1.15003 74.0994 1.15003C74.0005 1.15003 73.9289 1.17604 73.8847 1.22805C73.8405 1.28007 73.8184 1.37377 73.8184 1.50913V3.24245C73.9589 3.27368 74.0968 3.28929 74.2321 3.28929ZM82.5706 0.829863L83.6637 0.80644C83.7053 0.80644 83.7261 0.850699 83.7261 0.939221C83.7261 1.02764 83.7053 1.07185 83.6637 1.07185H83.3279C83.1978 1.07185 83.1119 1.09657 83.0702 1.146C83.0287 1.19553 83.0079 1.29057 83.0079 1.43111V5.76423H83.4607C84.2883 5.76423 84.8608 5.65492 85.1783 5.43631L85.2331 5.00694C85.2434 4.96526 85.2889 4.94442 85.3696 4.94442C85.4503 4.94442 85.4907 4.96004 85.4907 4.99127L85.4204 6.24836C85.4204 6.28477 85.3801 6.30297 85.2993 6.30297C85.2186 6.30297 85.1783 6.28477 85.1783 6.24836V6.07649H82.6409L81.5479 6.09216C81.5062 6.09216 81.4854 6.0479 81.4854 5.95937C81.4854 5.87096 81.5062 5.82675 81.5479 5.82675H81.8836C82.0137 5.82675 82.0995 5.80203 82.1412 5.7526C82.1829 5.70306 82.2037 5.60803 82.2037 5.46749V1.76679C82.2037 1.30877 82.1491 1.07976 82.0398 1.07976H81.5868C81.5452 1.07976 81.5245 1.03679 81.5245 0.950857C81.5245 0.865024 81.5452 0.822109 81.5868 0.822109C81.5868 0.822109 81.9147 0.824693 82.5706 0.829863ZM95.2735 6.07649L94.282 6.06874L93.2904 6.09216C93.2436 6.09216 93.2202 6.0479 93.2202 5.95937C93.2202 5.87096 93.2436 5.82675 93.2904 5.82675H93.7355C93.8448 5.82675 93.8994 5.78249 93.8994 5.69396C93.8994 5.65756 93.8005 5.34655 93.6027 4.76092C93.4048 4.17539 93.2825 3.80977 93.2357 3.66406H91.8225C91.453 4.84039 91.2683 5.51961 91.2683 5.70172C91.2683 5.7798 91.2839 5.81884 91.3151 5.81884H91.8771C91.9344 5.81884 91.9631 5.86181 91.9631 5.94774C91.9631 6.03358 91.9293 6.07649 91.8616 6.07649L90.8544 6.06874L89.9878 6.09216C89.9409 6.09216 89.9175 6.0479 89.9175 5.95937C89.9175 5.87096 89.9409 5.82675 89.9878 5.82675H90.3782C90.4927 5.82675 90.5786 5.76946 90.6359 5.65488C90.8545 5.18124 91.1316 4.47596 91.4673 3.53904C91.803 2.60221 92.032 1.98153 92.1543 1.67697C92.2767 1.37253 92.3378 1.20334 92.3378 1.16942C92.3378 1.1356 92.3274 1.09791 92.3067 1.05634C92.2858 1.01466 92.2753 0.988602 92.2753 0.978157C92.2753 0.936585 92.3131 0.915798 92.3886 0.915798C92.4641 0.915798 92.5343 0.897546 92.5994 0.861041C92.6644 0.824639 92.7074 0.783017 92.7283 0.73617C92.7855 0.621692 92.8375 0.564453 92.8843 0.564453C92.9052 0.564453 92.9417 0.642532 92.9937 0.798686L94.563 5.03812C94.7607 5.5586 94.8987 5.81884 94.9767 5.81884H95.2578C95.3099 5.81884 95.336 5.86181 95.336 5.94774C95.336 6.03358 95.3151 6.07649 95.2735 6.07649ZM92.5643 1.634H92.533C92.3717 2.05045 92.1687 2.623 91.924 3.35165H93.1265C92.7776 2.29507 92.5903 1.72253 92.5643 1.634ZM104.096 0.822109L104.947 0.837618L105.868 0.814194C105.915 0.814194 105.939 0.857166 105.939 0.943103C105.939 1.02894 105.915 1.07185 105.868 1.07185H105.501C105.397 1.07185 105.33 1.09527 105.298 1.14212C105.179 1.31916 105.114 2.99519 105.103 6.17018C105.093 6.20669 105.051 6.22494 104.978 6.22494C104.905 6.22494 104.851 6.20669 104.814 6.17018C103.294 4.36407 102.097 2.93009 101.223 1.86824H101.192C101.212 3.76288 101.228 4.89499 101.238 5.26459C101.249 5.63409 101.304 5.81884 101.402 5.81884H101.832C101.879 5.81884 101.902 5.86181 101.902 5.94774C101.902 6.03358 101.879 6.07649 101.832 6.07649L101.004 6.06874L100.075 6.09216C100.039 6.09216 100.02 6.0479 100.02 5.95937C100.02 5.87096 100.039 5.82675 100.075 5.82675H100.333C100.452 5.82675 100.538 5.81243 100.59 5.78378C100.642 5.75514 100.671 5.69919 100.676 5.61594C100.78 4.44478 100.832 3.04462 100.832 1.41544L100.778 1.35293C100.674 1.23328 100.581 1.15649 100.501 1.12257C100.42 1.08876 100.27 1.07185 100.052 1.07185C100.021 1.07185 100.005 1.03023 100.005 0.94698C100.005 0.863732 100.021 0.822109 100.052 0.822109L101.465 0.837618C103.318 3.15915 104.395 4.52291 104.697 4.92891H104.728C104.697 2.8625 104.671 1.70438 104.65 1.45453C104.63 1.20469 104.57 1.07976 104.471 1.07976H104.096C104.049 1.07976 104.026 1.03679 104.026 0.950857C104.026 0.865024 104.049 0.822109 104.096 0.822109ZM111.193 0.822109L112.177 0.837618H114.441V0.673659C114.441 0.626813 114.479 0.603389 114.554 0.603389C114.63 0.603389 114.667 0.626813 114.667 0.673659C114.667 1.19424 114.693 1.58985 114.745 1.86048C114.756 1.90216 114.719 1.92299 114.636 1.92299C114.553 1.92299 114.506 1.90216 114.496 1.86048C114.412 1.53256 114.313 1.34259 114.199 1.29057C113.923 1.18643 113.481 1.13178 112.872 1.12661C112.768 1.13178 112.699 1.16037 112.665 1.21239C112.631 1.26451 112.614 1.35562 112.614 1.48571V3.32823C112.937 3.32306 113.252 3.30744 113.559 3.28138C113.866 3.25542 114.032 3.23464 114.058 3.21902L114.136 2.75832C114.142 2.72192 114.173 2.70371 114.23 2.70371C114.339 2.70371 114.389 2.72714 114.379 2.77398C114.353 2.97698 114.34 3.20599 114.34 3.46101C114.34 3.71603 114.353 3.94504 114.379 4.14804C114.389 4.18971 114.351 4.21055 114.265 4.21055C114.179 4.21055 114.136 4.19494 114.136 4.16371L114.051 3.69524C114.019 3.67962 113.854 3.6575 113.555 3.62885C113.255 3.60021 112.942 3.5833 112.614 3.57813V5.07721C112.614 5.53523 112.669 5.76423 112.778 5.76423H113.176C113.983 5.75379 114.535 5.64448 114.831 5.43631L114.886 5.00694C114.896 4.96526 114.942 4.94442 115.023 4.94442C115.103 4.94442 115.144 4.96004 115.144 4.99127L115.073 6.24836C115.073 6.28477 115.033 6.30297 114.952 6.30297C114.872 6.30297 114.831 6.28477 114.831 6.24836V6.07649H112.903L111.154 6.09216C111.112 6.09216 111.092 6.0479 111.092 5.95937C111.092 5.87096 111.112 5.82675 111.154 5.82675H111.49C111.62 5.82675 111.706 5.80203 111.747 5.7526C111.789 5.70306 111.81 5.60803 111.81 5.46749V1.76679C111.81 1.30877 111.755 1.07976 111.646 1.07976H111.193C111.151 1.07976 111.131 1.03679 111.131 0.950857C111.131 0.865024 111.151 0.822109 111.193 0.822109ZM124.856 0.673659L124.919 1.86824C124.919 1.90991 124.877 1.93075 124.794 1.93075C124.711 1.93075 124.666 1.90733 124.661 1.86048C124.599 1.52211 124.492 1.32951 124.341 1.28266C124.076 1.21503 123.641 1.17599 123.037 1.16554C122.933 1.17082 122.863 1.19946 122.826 1.25148C122.79 1.30349 122.772 1.39461 122.772 1.5248V5.13181C122.772 5.58983 122.826 5.81884 122.936 5.81884H123.388C123.43 5.81884 123.451 5.86181 123.451 5.94774C123.451 6.03358 123.43 6.07649 123.388 6.07649L122.405 6.06874L121.312 6.09216C121.27 6.09216 121.249 6.0479 121.249 5.95937C121.249 5.87096 121.27 5.82675 121.312 5.82675H121.647C121.777 5.82675 121.863 5.80203 121.905 5.7526C121.947 5.70306 121.968 5.60803 121.968 5.46749V1.85272C121.968 1.3946 121.915 1.16554 121.811 1.16554H121.647C121.132 1.16554 120.716 1.20458 120.398 1.28266C120.247 1.32951 120.14 1.52211 120.078 1.86048C120.073 1.90733 120.029 1.93075 119.945 1.93075C119.862 1.93075 119.82 1.90991 119.82 1.86824L119.883 0.673659C119.883 0.626813 119.924 0.603389 120.008 0.603389C120.091 0.603389 120.133 0.626813 120.133 0.673659V0.822109C120.487 0.832451 120.812 0.837618 121.109 0.837618H123.443C123.865 0.837618 124.252 0.832451 124.606 0.822109V0.673659C124.606 0.626813 124.648 0.603389 124.731 0.603389C124.815 0.603389 124.856 0.626813 124.856 0.673659Z" fill="#F8F3ED"/>
<path d="M122.428 8.30298H2.57449V8.90422H122.428V8.30298Z" fill="#F8F3ED"/>
<path d="M46.7732 13.8274V14.1581H43.9855V13.8274H46.7732ZM44.0769 11.7705V16.3567H43.6895V11.7705H44.0769ZM47.085 11.7705V16.3567H46.6976V11.7705H47.085Z" fill="white"/>
<path d="M53.5782 13.8179V14.3093C53.5782 14.6306 53.5362 14.9214 53.4522 15.1818C53.3703 15.4401 53.2506 15.6617 53.0931 15.8464C52.9377 16.0312 52.7508 16.173 52.5324 16.2717C52.314 16.3704 52.0683 16.4197 51.7953 16.4197C51.5286 16.4197 51.2851 16.3704 51.0646 16.2717C50.8462 16.173 50.6582 16.0312 50.5007 15.8464C50.3432 15.6617 50.2214 15.4401 50.1353 15.1818C50.0493 14.9214 50.0062 14.6306 50.0062 14.3093V13.8179C50.0062 13.4966 50.0482 13.2069 50.1322 12.9486C50.2183 12.6882 50.3401 12.4656 50.4976 12.2808C50.6551 12.096 50.843 11.9543 51.0614 11.8556C51.2798 11.7569 51.5223 11.7075 51.789 11.7075C52.062 11.7075 52.3077 11.7569 52.5261 11.8556C52.7445 11.9543 52.9324 12.096 53.0899 12.2808C53.2474 12.4656 53.3682 12.6882 53.4522 12.9486C53.5362 13.2069 53.5782 13.4966 53.5782 13.8179ZM53.1939 14.3093V13.8116C53.1939 13.5407 53.1624 13.2972 53.0994 13.0809C53.0385 12.8646 52.9471 12.6798 52.8253 12.5265C52.7056 12.3732 52.5587 12.2556 52.3844 12.1737C52.2101 12.0918 52.0116 12.0509 51.789 12.0509C51.5727 12.0509 51.3785 12.0918 51.2063 12.1737C51.0341 12.2556 50.8871 12.3732 50.7653 12.5265C50.6456 12.6798 50.5532 12.8646 50.4881 13.0809C50.4251 13.2972 50.3936 13.5407 50.3936 13.8116V14.3093C50.3936 14.5823 50.4251 14.828 50.4881 15.0464C50.5532 15.2627 50.6467 15.4485 50.7685 15.6039C50.8903 15.7572 51.0373 15.8748 51.2095 15.9567C51.3837 16.0386 51.579 16.0795 51.7953 16.0795C52.02 16.0795 52.2185 16.0386 52.3907 15.9567C52.5628 15.8748 52.7088 15.7572 52.8285 15.6039C52.9482 15.4485 53.0385 15.2627 53.0994 15.0464C53.1624 14.828 53.1939 14.5823 53.1939 14.3093Z" fill="white"/>
<path d="M59.1452 16.026V16.3567H56.7671V16.026H59.1452ZM56.8805 11.7705V16.3567H56.493V11.7705H56.8805Z" fill="white"/>
<path d="M63.0838 16.3567H62.0444L62.0507 16.026H63.0838C63.4135 16.026 63.697 15.9525 63.9343 15.8055C64.1737 15.6564 64.3585 15.4506 64.4887 15.1881C64.6189 14.9256 64.684 14.6212 64.684 14.2747V13.8463C64.684 13.5817 64.6462 13.3423 64.5706 13.1281C64.4971 12.9139 64.391 12.7312 64.2524 12.58C64.1138 12.4267 63.948 12.3091 63.7548 12.2272C63.5637 12.1454 63.3495 12.1044 63.1122 12.1044H62.0255V11.7705H63.1122C63.3978 11.7705 63.6592 11.8199 63.8965 11.9186C64.1359 12.0152 64.3427 12.1559 64.517 12.3406C64.6934 12.5233 64.8289 12.7428 64.9234 12.999C65.02 13.2552 65.0683 13.5407 65.0683 13.8557V14.2747C65.0683 14.5897 65.02 14.8752 64.9234 15.1314C64.8289 15.3876 64.6934 15.6071 64.517 15.7898C64.3406 15.9724 64.1317 16.1131 63.8902 16.2118C63.6487 16.3084 63.3799 16.3567 63.0838 16.3567ZM62.2176 11.7705V16.3567H61.8302V11.7705H62.2176Z" fill="white"/>
<path d="M68.4651 11.7705V16.3567H68.0776V11.7705H68.4651Z" fill="white"/>
<path d="M75.0622 11.7705V16.3567H74.6716L72.0351 12.4383V16.3567H71.6477V11.7705H72.0351L74.6779 15.689V11.7705H75.0622Z" fill="white"/>
<path d="M81.4766 14.177V15.8087C81.4241 15.8863 81.3338 15.9724 81.2057 16.0669C81.0776 16.1614 80.9054 16.2444 80.6891 16.3158C80.4728 16.3851 80.204 16.4197 79.8827 16.4197C79.6139 16.4197 79.3672 16.3714 79.1425 16.2748C78.9178 16.1782 78.7225 16.0386 78.5566 15.8559C78.3928 15.6711 78.2658 15.4496 78.1755 15.1913C78.0873 14.933 78.0432 14.6432 78.0432 14.3219V13.7675C78.0432 13.4525 78.0842 13.1691 78.166 12.9171C78.2479 12.663 78.3666 12.4456 78.522 12.265C78.6774 12.0845 78.8643 11.9469 79.0827 11.8524C79.3032 11.7558 79.5499 11.7075 79.8229 11.7075C80.1631 11.7075 80.4497 11.7663 80.6828 11.8839C80.9159 12.0015 81.0975 12.1632 81.2277 12.369C81.36 12.5727 81.4419 12.8037 81.4734 13.062H81.086C81.0566 12.8793 80.9957 12.7113 80.9033 12.558C80.8109 12.4026 80.6765 12.2776 80.5001 12.1832C80.3258 12.0887 80.1001 12.0414 79.8229 12.0414C79.6003 12.0414 79.4018 12.0824 79.2276 12.1643C79.0554 12.2461 78.9105 12.3627 78.7929 12.5139C78.6753 12.6651 78.586 12.8467 78.5251 13.0588C78.4642 13.2688 78.4338 13.5029 78.4338 13.7612V14.3219C78.4338 14.5907 78.4674 14.8332 78.5346 15.0495C78.6039 15.2658 78.7026 15.4517 78.8307 15.6071C78.9588 15.7625 79.1121 15.8821 79.2906 15.9661C79.469 16.048 79.6675 16.089 79.8859 16.089C80.119 16.089 80.3174 16.0669 80.4812 16.0228C80.645 15.9787 80.7762 15.9262 80.8749 15.8653C80.9757 15.8024 81.0482 15.7436 81.0923 15.689V14.5078H79.8607V14.177H81.4766Z" fill="white"/>
</svg>
