<svg width="250" height="36" viewBox="0 0 250 36" fill="none" xmlns="http://www.w3.org/2000/svg">
<path d="M9.24418 9.60641L9.33788 8.87239C9.35856 8.75802 9.44967 8.70083 9.6112 8.70083C9.77252 8.70083 9.85318 8.74767 9.85318 8.84136L9.72816 11.0118C9.72816 11.0949 9.6475 11.1365 9.48617 11.1365C9.32485 11.1365 9.24418 11.0949 9.24418 11.0118V10.637C8.22391 11.043 7.22453 11.246 6.24604 11.246C4.45554 11.246 2.96692 10.7958 1.78015 9.89525C0.593383 8.99473 0 7.74809 0 6.15532C0 4.95821 0.312306 3.9094 0.93692 3.00888C1.56153 2.10857 2.35264 1.44238 3.31025 1.01032C4.26806 0.578258 5.24924 0.362231 6.25379 0.362231C7.25834 0.362231 8.15618 0.565235 8.94728 0.971234V0.611971C8.94728 0.518279 9.02278 0.471432 9.17376 0.471432C9.32474 0.471432 9.40023 0.518279 9.40023 0.611971C9.40023 1.4552 9.45225 2.22563 9.55628 2.92325C9.57717 3.02729 9.4991 3.0793 9.32205 3.0793C9.14522 3.0793 9.05153 3.02729 9.04098 2.92325L8.91626 2.18923C8.10426 1.43969 7.13352 1.06493 6.00405 1.06493C4.87457 1.06493 3.91418 1.47867 3.12286 2.30618C2.33175 3.1339 1.9362 4.30506 1.9362 5.81964C1.9362 7.33443 2.35523 8.50041 3.19329 9.31758C4.03135 10.1348 5.08016 10.5433 6.33973 10.5433C7.35979 10.5433 8.32794 10.231 9.24418 9.60641ZM20.6898 0.534109L22.6574 0.565125H24.453C25.8272 0.565125 26.8604 0.825415 27.5526 1.346C28.2451 1.86658 28.5913 2.48603 28.5913 3.20433C28.5913 3.92243 28.3362 4.50795 27.8259 4.9609C27.3159 5.41364 26.6653 5.72854 25.8742 5.90558C25.0204 5.99927 24.4973 6.04612 24.3047 6.04612C24.1122 6.04612 23.8546 6.01489 23.5319 5.95243V9.15347C23.5319 10.0695 23.6412 10.5275 23.8598 10.5275H24.7654C24.8488 10.5275 24.8905 10.6135 24.8905 10.7853C24.8905 10.957 24.8488 11.0428 24.7654 11.0428L22.7979 11.0273L20.612 11.0742C20.5286 11.0742 20.4869 10.9856 20.4869 10.8086C20.4869 10.6318 20.5286 10.5433 20.612 10.5433H21.2833C21.5435 10.5433 21.7153 10.4939 21.7986 10.395C21.882 10.296 21.9236 10.1059 21.9236 9.82483V2.42346C21.9236 1.50743 21.8143 1.04941 21.5957 1.04941H20.6898C20.6067 1.04941 20.5651 0.963475 20.5651 0.791603C20.5651 0.619937 20.6067 0.534109 20.6898 0.534109ZM24.3596 5.46846C25.1611 5.46846 25.7856 5.27062 26.2332 4.87496C26.6809 4.4793 26.9048 3.99006 26.9048 3.40723C26.9048 2.82418 26.6653 2.30888 26.1863 1.86131C25.7075 1.41373 25.0257 1.18995 24.1409 1.18995C23.7349 1.18995 23.5319 1.40329 23.5319 1.82997V5.37476C23.813 5.43722 24.0889 5.46846 24.3596 5.46846ZM30.0904 9.94985C30.1528 9.89773 30.2152 9.90032 30.2774 9.95761C30.3399 10.0149 30.3711 10.0566 30.3711 10.0826C30.3711 10.1087 30.366 10.1321 30.3556 10.1528C29.8456 10.8816 29.2783 11.246 28.6536 11.246C28.2164 11.246 27.8156 11.095 27.4512 10.7931C27.0869 10.4911 26.7773 10.1112 26.5223 9.65326C26.2671 9.19514 26.0198 8.72668 25.7805 8.24788C25.1871 7.02988 24.6198 6.29079 24.0786 6.0306L25.0778 5.84322C25.5566 5.92636 25.9757 6.13971 26.3349 6.48325C26.694 6.82678 26.9828 7.20941 27.2014 7.63112C27.42 8.05263 27.6282 8.47166 27.8259 8.88821C28.2944 9.8667 28.8045 10.356 29.3563 10.356C29.5541 10.356 29.7987 10.2206 30.0904 9.94985ZM45.4866 11.0428L43.5504 11.0273L41.3955 11.0742C41.3123 11.0742 41.2707 10.9856 41.2707 10.8086C41.2707 10.6318 41.3123 10.5433 41.3955 10.5433H42.0668C42.3272 10.5433 42.499 10.4939 42.5821 10.395C42.6655 10.296 42.7072 10.1059 42.7072 9.82483V6.32719C42.7175 5.9003 41.6713 4.46897 39.5685 2.03318C39.2249 1.62718 38.9595 1.35903 38.7721 1.22873C38.5847 1.09863 38.4129 1.03359 38.2568 1.03359H37.7573C37.6843 1.03359 37.6478 0.950343 37.6478 0.783849C37.6478 0.617354 37.6843 0.534109 37.7573 0.534109L39.6935 0.565125L41.8953 0.534109C41.989 0.534109 42.0358 0.619937 42.0358 0.791603C42.0358 0.963475 41.989 1.04941 41.8953 1.04941H40.8023C40.8023 1.09098 40.9897 1.33556 41.3644 1.78313C42.5719 3.19885 43.3734 4.31271 43.7691 5.12471H43.8159C44.0346 4.74994 44.5003 4.11757 45.2133 3.22759C45.9264 2.33762 46.3272 1.80412 46.4158 1.62707C46.5043 1.45003 46.5485 1.31467 46.5485 1.22097C46.5485 1.09605 46.4912 1.03359 46.3767 1.03359H45.7677C45.674 1.03359 45.6271 0.950343 45.6271 0.783849C45.6271 0.617354 45.674 0.534109 45.7677 0.534109L47.6105 0.565125L49.3435 0.534109C49.4477 0.534109 49.4998 0.619937 49.4998 0.791603C49.4998 0.963475 49.4477 1.04941 49.3435 1.04941H48.9532C48.693 1.04941 48.4692 1.13265 48.2818 1.29915C47.522 1.9341 46.6605 2.79296 45.6975 3.87569C44.7346 4.95822 44.2531 5.67652 44.2531 6.0306V9.40321C44.2531 10.1527 44.3624 10.5275 44.581 10.5275H45.4866C45.5699 10.5275 45.6116 10.6135 45.6116 10.7853C45.6116 10.957 45.5699 11.0428 45.4866 11.0428ZM64.8805 8.33382C64.8805 9.2029 64.511 9.90559 63.7721 10.4419C63.0329 10.978 62.2156 11.246 61.3202 11.246C60.4251 11.246 59.634 11.0899 58.9469 10.7776L59.0719 11.0897C59.1032 11.1521 59.0797 11.212 59.0015 11.2693C58.9235 11.3266 58.8377 11.3552 58.744 11.3552C58.6503 11.3552 58.5879 11.3292 58.5566 11.2771C58.2234 10.4338 58.0204 9.45533 57.9476 8.34157C57.9476 8.23754 58.0309 8.18552 58.1974 8.18552C58.3639 8.18552 58.4524 8.22192 58.4629 8.29473C58.6919 9.08584 59.1551 9.72079 59.8525 10.1996C60.2794 10.5016 60.7765 10.6525 61.3438 10.6525C61.9111 10.6525 62.3692 10.4886 62.7179 10.1608C63.0666 9.83279 63.2409 9.43713 63.2409 8.97384C63.2409 8.51075 63.1213 8.09441 62.882 7.72482C62.6425 7.35522 62.3458 7.05595 61.9919 6.82699C61.6378 6.59783 61.2526 6.35574 60.8363 6.10072C60.4199 5.8457 60.0347 5.60113 59.6806 5.367C59.3267 5.13267 59.0302 4.81767 58.7909 4.42202C58.5514 4.02656 58.4316 3.57899 58.4316 3.0793C58.4316 2.31942 58.7726 1.67661 59.4545 1.15086C60.1362 0.625105 60.9923 0.362231 62.0229 0.362231C62.4914 0.362231 62.9286 0.424694 63.3346 0.549617L63.522 0.596463C63.4804 0.429968 63.4571 0.315492 63.4519 0.253031C63.4467 0.190569 63.4675 0.146306 63.5143 0.120246C63.5612 0.0941856 63.6341 0.0811533 63.733 0.0811533C63.8318 0.0811533 63.8969 0.122833 63.9281 0.206184C64.1676 1.04941 64.3082 1.87702 64.3497 2.68902C64.3185 2.75148 64.2326 2.78271 64.0919 2.78271C63.9515 2.78271 63.8656 2.7671 63.8344 2.73587C63.7198 2.30898 63.5585 1.95758 63.3504 1.68167C63.1422 1.40577 62.9131 1.21581 62.6633 1.11177C62.4134 1.00774 62.1219 0.955716 61.7887 0.955716C61.1434 0.955716 60.6828 1.11963 60.4069 1.44745C60.131 1.77548 59.993 2.13463 59.993 2.52491C59.993 2.9154 60.0841 3.24849 60.2664 3.52419C60.4486 3.8001 60.6828 4.03959 60.9691 4.2427C61.2553 4.44559 61.5702 4.64332 61.9137 4.83588C62.2573 5.02843 62.6034 5.23401 62.9521 5.45263C63.3008 5.67124 63.621 5.91075 63.9126 6.17114C64.5579 6.74364 64.8805 7.46453 64.8805 8.33382ZM84.3682 0.23721L84.4932 2.62636C84.4932 2.70971 84.4099 2.75138 84.2432 2.75138C84.0767 2.75138 83.9883 2.70454 83.9779 2.61085C83.853 1.93411 83.6395 1.5489 83.3376 1.45521C82.8066 1.31994 81.9375 1.24186 80.73 1.22097C80.5217 1.23152 80.3812 1.28881 80.3084 1.39284C80.2354 1.49688 80.1989 1.6791 80.1989 1.93949V9.15347C80.1989 10.0695 80.3082 10.5275 80.5268 10.5275H81.4327C81.5159 10.5275 81.5574 10.6135 81.5574 10.7853C81.5574 10.957 81.5159 11.0428 81.4327 11.0428L79.4652 11.0273L77.2789 11.0742C77.1958 11.0742 77.1542 10.9856 77.1542 10.8086C77.1542 10.6318 77.1958 10.5433 77.2789 10.5433H77.9503C78.2107 10.5433 78.3824 10.4939 78.4656 10.395C78.5489 10.296 78.5906 10.1059 78.5906 9.82483V2.59533C78.5906 1.67909 78.4865 1.22097 78.2782 1.22097H77.9503C76.9199 1.22097 76.0871 1.29905 75.4519 1.45521C75.1502 1.5489 74.9368 1.93411 74.8119 2.61085C74.8014 2.70454 74.7128 2.75138 74.5463 2.75138C74.3798 2.75138 74.2966 2.70971 74.2966 2.62636L74.4213 0.23721C74.4213 0.143518 74.5047 0.0966709 74.6714 0.0966709C74.8379 0.0966709 74.9211 0.143518 74.9211 0.23721V0.534109C75.6291 0.554791 76.2797 0.565125 76.8731 0.565125H81.5419C82.3851 0.565125 83.1606 0.554791 83.8684 0.534109V0.23721C83.8684 0.143518 83.9517 0.0966709 84.1184 0.0966709C84.2849 0.0966709 84.3682 0.143518 84.3682 0.23721ZM103.466 11.0428L101.482 11.0273L99.4992 11.0742C99.4055 11.0742 99.3586 10.9856 99.3586 10.8086C99.3586 10.6318 99.4055 10.5433 99.4992 10.5433H100.389C100.608 10.5433 100.717 10.4548 100.717 10.2778C100.717 10.205 100.519 9.58295 100.124 8.41169C99.7283 7.24064 99.4836 6.50941 99.3899 6.21799H96.5637C95.8245 8.57063 95.4549 9.92907 95.4549 10.2933C95.4549 10.4494 95.4861 10.5275 95.5486 10.5275H96.6729C96.7875 10.5275 96.8448 10.6135 96.8448 10.7853C96.8448 10.957 96.777 11.0428 96.6415 11.0428L94.6275 11.0273L92.8942 11.0742C92.8005 11.0742 92.7536 10.9856 92.7536 10.8086C92.7536 10.6318 92.8005 10.5433 92.8942 10.5433H93.6747C93.9039 10.5433 94.0757 10.4288 94.19 10.1996C94.6273 9.25233 95.1817 7.84178 95.8532 5.96794C96.5246 4.0943 96.9826 2.85293 97.2273 2.24383C97.472 1.63493 97.5943 1.29657 97.5943 1.22873C97.5943 1.1611 97.5734 1.08571 97.5316 1.00256C97.49 0.919212 97.4693 0.867093 97.4693 0.846203C97.4693 0.763059 97.5447 0.721485 97.6957 0.721485C97.8467 0.721485 97.9873 0.684981 98.1173 0.611971C98.2474 0.539169 98.3333 0.455924 98.3748 0.362231C98.4894 0.133275 98.5936 0.0187988 98.6873 0.0187988C98.7288 0.0187988 98.8017 0.174955 98.906 0.487262L102.044 8.96608C102.44 10.007 102.716 10.5275 102.872 10.5275H103.434C103.538 10.5275 103.59 10.6135 103.59 10.7853C103.59 10.957 103.549 11.0428 103.466 11.0428ZM98.0469 2.15789H97.9846C97.6619 2.99078 97.2559 4.13587 96.7666 5.59316H99.1712C98.4738 3.48003 98.099 2.33493 98.0469 2.15789ZM115.411 0.549617L117.597 0.502771C117.68 0.502771 117.722 0.591288 117.722 0.768331C117.722 0.945167 117.68 1.03359 117.597 1.03359H116.926C116.665 1.03359 116.494 1.08302 116.41 1.18188C116.327 1.28095 116.286 1.47103 116.286 1.7521V10.4183H117.191C118.846 10.4183 119.991 10.1997 120.626 9.76246L120.736 8.90373C120.757 8.82038 120.848 8.7787 121.009 8.7787C121.17 8.7787 121.251 8.80993 121.251 8.87239L121.11 11.3866C121.11 11.4594 121.03 11.4958 120.868 11.4958C120.707 11.4958 120.626 11.4594 120.626 11.3866V11.0428H115.552L113.365 11.0742C113.282 11.0742 113.241 10.9856 113.241 10.8086C113.241 10.6318 113.282 10.5433 113.365 10.5433H114.037C114.297 10.5433 114.469 10.4939 114.552 10.395C114.635 10.296 114.677 10.1059 114.677 9.82483V2.42346C114.677 1.50743 114.568 1.04941 114.349 1.04941H113.443C113.36 1.04941 113.318 0.963475 113.318 0.791603C113.318 0.619937 113.36 0.534109 113.443 0.534109C113.443 0.534109 114.099 0.539276 115.411 0.549617ZM144.627 0.534109L146.594 0.565125H148.39C149.764 0.565125 150.797 0.830591 151.49 1.36151C152.182 1.89243 152.528 2.54052 152.528 3.30578C152.528 4.07083 152.21 4.75262 151.576 5.35118C150.941 5.94973 150.129 6.24901 149.14 6.24901C148.598 6.24901 148.041 6.12409 147.469 5.87424V9.15347C147.469 10.0695 147.578 10.5275 147.797 10.5275H148.702C148.806 10.5275 148.858 10.6135 148.858 10.7853C148.858 10.957 148.806 11.0428 148.702 11.0428H148.031L147.359 11.0273H146.735L144.549 11.0742C144.465 11.0742 144.424 10.9856 144.424 10.8086C144.424 10.6318 144.465 10.5433 144.549 10.5433H145.22C145.48 10.5433 145.652 10.4939 145.736 10.395C145.819 10.296 145.86 10.1059 145.86 9.82483V2.42346C145.86 1.50743 145.751 1.04941 145.532 1.04941H144.627C144.543 1.04941 144.502 0.963475 144.502 0.791603C144.502 0.619937 144.543 0.534109 144.627 0.534109ZM148.296 5.46846C149.098 5.46846 149.723 5.27062 150.17 4.87496C150.618 4.4793 150.842 3.98748 150.842 3.39947C150.842 2.81126 150.6 2.29595 150.116 1.85355C149.631 1.41115 148.936 1.18995 148.031 1.18995C147.833 1.18995 147.69 1.24196 147.601 1.346C147.513 1.45003 147.469 1.63742 147.469 1.90815V5.37476C147.75 5.43722 148.026 5.46846 148.296 5.46846ZM164.973 0.549617L167.159 0.502771C167.243 0.502771 167.284 0.591288 167.284 0.768331C167.284 0.945167 167.243 1.03359 167.159 1.03359H166.488C166.228 1.03359 166.056 1.08302 165.972 1.18188C165.889 1.28095 165.848 1.47103 165.848 1.7521V10.4183H166.753C168.409 10.4183 169.554 10.1997 170.189 9.76246L170.298 8.90373C170.319 8.82038 170.41 8.7787 170.571 8.7787C170.733 8.7787 170.813 8.80993 170.813 8.87239L170.673 11.3866C170.673 11.4594 170.592 11.4958 170.431 11.4958C170.269 11.4958 170.189 11.4594 170.189 11.3866V11.0428H165.114L162.928 11.0742C162.844 11.0742 162.803 10.9856 162.803 10.8086C162.803 10.6318 162.844 10.5433 162.928 10.5433H163.599C163.859 10.5433 164.031 10.4939 164.114 10.395C164.198 10.296 164.239 10.1059 164.239 9.82483V2.42346C164.239 1.50743 164.13 1.04941 163.912 1.04941H163.006C162.922 1.04941 162.881 0.963475 162.881 0.791603C162.881 0.619937 162.922 0.534109 163.006 0.534109C163.006 0.534109 163.661 0.539276 164.973 0.549617ZM190.379 11.0428L188.396 11.0273L186.413 11.0742C186.319 11.0742 186.272 10.9856 186.272 10.8086C186.272 10.6318 186.319 10.5433 186.413 10.5433H187.303C187.522 10.5433 187.631 10.4548 187.631 10.2778C187.631 10.205 187.433 9.58295 187.037 8.41169C186.642 7.24064 186.397 6.50941 186.303 6.21799H183.477C182.738 8.57063 182.369 9.92907 182.369 10.2933C182.369 10.4494 182.4 10.5275 182.462 10.5275H183.586C183.701 10.5275 183.758 10.6135 183.758 10.7853C183.758 10.957 183.69 11.0428 183.555 11.0428L181.541 11.0273L179.808 11.0742C179.714 11.0742 179.667 10.9856 179.667 10.8086C179.667 10.6318 179.714 10.5433 179.808 10.5433H180.588C180.817 10.5433 180.989 10.4288 181.104 10.1996C181.541 9.25233 182.095 7.84178 182.767 5.96794C183.438 4.0943 183.896 2.85293 184.141 2.24383C184.385 1.63493 184.508 1.29657 184.508 1.22873C184.508 1.1611 184.487 1.08571 184.445 1.00256C184.404 0.919212 184.383 0.867093 184.383 0.846203C184.383 0.763059 184.458 0.721485 184.609 0.721485C184.76 0.721485 184.901 0.684981 185.031 0.611971C185.161 0.539169 185.247 0.455924 185.289 0.362231C185.403 0.133275 185.507 0.0187988 185.601 0.0187988C185.642 0.0187988 185.715 0.174955 185.819 0.487262L188.958 8.96608C189.353 10.007 189.629 10.5275 189.785 10.5275H190.348C190.452 10.5275 190.504 10.6135 190.504 10.7853C190.504 10.957 190.462 11.0428 190.379 11.0428ZM184.961 2.15789H184.898C184.575 2.99078 184.169 4.13587 183.68 5.59316H186.085C185.387 3.48003 185.013 2.33493 184.961 2.15789ZM208.024 0.534109L209.726 0.565125L211.569 0.518279C211.662 0.518279 211.709 0.604222 211.709 0.776095C211.709 0.94776 211.662 1.03359 211.569 1.03359H210.835C210.627 1.03359 210.491 1.08044 210.429 1.17413C210.189 1.52821 210.059 4.88024 210.038 11.2302C210.018 11.3032 209.934 11.3397 209.788 11.3397C209.643 11.3397 209.533 11.3032 209.46 11.2302C206.421 7.61799 204.026 4.75004 202.278 2.62636H202.215C202.257 6.41561 202.288 8.67983 202.309 9.41903C202.33 10.158 202.439 10.5275 202.637 10.5275H203.495C203.589 10.5275 203.636 10.6135 203.636 10.7853C203.636 10.957 203.589 11.0428 203.495 11.0428L201.84 11.0273L199.982 11.0742C199.909 11.0742 199.873 10.9856 199.873 10.8086C199.873 10.6318 199.909 10.5433 199.982 10.5433H200.497C200.737 10.5433 200.909 10.5147 201.013 10.4574C201.117 10.4001 201.174 10.2882 201.185 10.1217C201.393 7.77942 201.497 4.9791 201.497 1.72077L201.387 1.59574C201.179 1.35645 200.995 1.20287 200.833 1.13504C200.672 1.0674 200.373 1.03359 199.936 1.03359C199.873 1.03359 199.842 0.950343 199.842 0.783849C199.842 0.617354 199.873 0.534109 199.936 0.534109L202.762 0.565125C206.468 5.20816 208.623 7.93567 209.226 8.74767H209.289C209.226 4.61488 209.174 2.29864 209.133 1.79895C209.091 1.29926 208.971 1.04941 208.774 1.04941H208.024C207.93 1.04941 207.884 0.963475 207.884 0.791603C207.884 0.619937 207.93 0.534109 208.024 0.534109ZM222.218 0.534109L224.186 0.565125H228.714V0.23721C228.714 0.143518 228.789 0.0966709 228.94 0.0966709C229.091 0.0966709 229.167 0.143518 229.167 0.23721C229.167 1.27837 229.219 2.06958 229.323 2.61085C229.344 2.6942 229.271 2.73587 229.104 2.73587C228.938 2.73587 228.844 2.6942 228.823 2.61085C228.657 1.955 228.459 1.57506 228.23 1.47103C227.678 1.26275 226.793 1.15344 225.575 1.1431C225.367 1.15344 225.229 1.21063 225.162 1.31467C225.094 1.41891 225.06 1.60112 225.06 1.86131V5.54632C225.705 5.53598 226.335 5.50475 226.95 5.45263C227.564 5.40071 227.897 5.35915 227.949 5.32792L228.105 4.40651C228.115 4.3337 228.178 4.2973 228.292 4.2973C228.511 4.2973 228.61 4.34414 228.589 4.43784C228.537 4.84383 228.511 5.30186 228.511 5.81189C228.511 6.32192 228.537 6.77993 228.589 7.18593C228.61 7.26928 228.534 7.31096 228.363 7.31096C228.191 7.31096 228.105 7.27973 228.105 7.21727L227.933 6.28034C227.871 6.24911 227.54 6.20486 226.941 6.14757C226.343 6.09028 225.716 6.05646 225.06 6.04612V9.04427C225.06 9.9603 225.169 10.4183 225.388 10.4183H226.184C227.798 10.3974 228.901 10.1788 229.495 9.76246L229.604 8.90373C229.625 8.82038 229.716 8.7787 229.877 8.7787C230.039 8.7787 230.119 8.80993 230.119 8.87239L229.979 11.3866C229.979 11.4594 229.898 11.4958 229.737 11.4958C229.575 11.4958 229.495 11.4594 229.495 11.3866V11.0428H225.638L222.14 11.0742C222.057 11.0742 222.015 10.9856 222.015 10.8086C222.015 10.6318 222.057 10.5433 222.14 10.5433H222.812C223.072 10.5433 223.244 10.4939 223.327 10.395C223.41 10.296 223.452 10.1059 223.452 9.82483V2.42346C223.452 1.50743 223.342 1.04941 223.124 1.04941H222.218C222.135 1.04941 222.093 0.963475 222.093 0.791603C222.093 0.619937 222.135 0.534109 222.218 0.534109ZM249.545 0.23721L249.669 2.62636C249.669 2.70971 249.586 2.75138 249.42 2.75138C249.253 2.75138 249.165 2.70454 249.154 2.61085C249.029 1.93411 248.816 1.5489 248.514 1.45521C247.983 1.31994 247.114 1.24186 245.906 1.22097C245.698 1.23152 245.557 1.28881 245.484 1.39284C245.412 1.49688 245.375 1.6791 245.375 1.93949V9.15347C245.375 10.0695 245.485 10.5275 245.703 10.5275H246.609C246.692 10.5275 246.734 10.6135 246.734 10.7853C246.734 10.957 246.692 11.0428 246.609 11.0428L244.641 11.0273L242.455 11.0742C242.372 11.0742 242.33 10.9856 242.33 10.8086C242.33 10.6318 242.372 10.5433 242.455 10.5433H243.127C243.387 10.5433 243.559 10.4939 243.642 10.395C243.725 10.296 243.767 10.1059 243.767 9.82483V2.59533C243.767 1.67909 243.663 1.22097 243.455 1.22097H243.127C242.096 1.22097 241.263 1.29905 240.628 1.45521C240.326 1.5489 240.113 1.93411 239.988 2.61085C239.978 2.70454 239.889 2.75138 239.723 2.75138C239.556 2.75138 239.473 2.70971 239.473 2.62636L239.598 0.23721C239.598 0.143518 239.681 0.0966709 239.847 0.0966709C240.014 0.0966709 240.097 0.143518 240.097 0.23721V0.534109C240.805 0.554791 241.456 0.565125 242.049 0.565125H246.718C247.561 0.565125 248.337 0.554791 249.045 0.534109V0.23721C249.045 0.143518 249.128 0.0966709 249.294 0.0966709C249.461 0.0966709 249.545 0.143518 249.545 0.23721Z" fill="#F8F3ED"/>
<path d="M244.688 15.4958H4.98102V16.6982H244.688V15.4958Z" fill="#F8F3ED"/>
<path d="M90.4561 29.5295V30.2473H84.4062V29.5295H90.4561ZM84.6045 25.0657V35.0188H83.7637V25.0657H84.6045ZM91.1328 25.0657V35.0188H90.292V25.0657H91.1328Z" fill="white"/>
<path d="M105.224 29.509V30.5754C105.224 31.2727 105.133 31.9039 104.951 32.469C104.773 33.0295 104.513 33.5103 104.172 33.9114C103.834 34.3124 103.429 34.62 102.955 34.8342C102.481 35.0484 101.948 35.1555 101.355 35.1555C100.776 35.1555 100.248 35.0484 99.7693 34.8342C99.2954 34.62 98.8875 34.3124 98.5457 33.9114C98.2039 33.5103 97.9396 33.0295 97.7527 32.469C97.5659 31.9039 97.4725 31.2727 97.4725 30.5754V29.509C97.4725 28.8118 97.5636 28.1829 97.7459 27.6223C97.9327 27.0572 98.1971 26.5741 98.5389 26.1731C98.8807 25.7721 99.2885 25.4644 99.7625 25.2502C100.236 25.0361 100.763 24.929 101.342 24.929C101.934 24.929 102.467 25.0361 102.941 25.2502C103.415 25.4644 103.823 25.7721 104.165 26.1731C104.507 26.5741 104.769 27.0572 104.951 27.6223C105.133 28.1829 105.224 28.8118 105.224 29.509ZM104.39 30.5754V29.4954C104.39 28.9075 104.322 28.3788 104.185 27.9094C104.053 27.44 103.855 27.039 103.591 26.7063C103.331 26.3736 103.012 26.1184 102.634 25.9407C102.255 25.7629 101.825 25.6741 101.342 25.6741C100.872 25.6741 100.451 25.7629 100.077 25.9407C99.7033 26.1184 99.3842 26.3736 99.1199 26.7063C98.8602 27.039 98.6596 27.44 98.5184 27.9094C98.3816 28.3788 98.3133 28.9075 98.3133 29.4954V30.5754C98.3133 31.1679 98.3816 31.7011 98.5184 32.175C98.6596 32.6444 98.8624 33.0478 99.1268 33.385C99.3911 33.7177 99.7101 33.9729 100.084 34.1506C100.462 34.3284 100.886 34.4172 101.355 34.4172C101.843 34.4172 102.274 34.3284 102.647 34.1506C103.021 33.9729 103.338 33.7177 103.597 33.385C103.857 33.0478 104.053 32.6444 104.185 32.175C104.322 31.7011 104.39 31.1679 104.39 30.5754Z" fill="white"/>
<path d="M117.306 34.301V35.0188H112.145V34.301H117.306ZM112.391 25.0657V35.0188H111.55V25.0657H112.391Z" fill="white"/>
<path d="M125.854 35.0188H123.598L123.612 34.301H125.854C126.569 34.301 127.185 34.1415 127.7 33.8225C128.219 33.4989 128.62 33.0523 128.903 32.4827C129.185 31.913 129.327 31.2522 129.327 30.5002V29.5706C129.327 28.9963 129.245 28.4768 129.08 28.012C128.921 27.5471 128.691 27.1506 128.39 26.8225C128.089 26.4898 127.729 26.2346 127.31 26.0569C126.895 25.8792 126.43 25.7903 125.915 25.7903H123.557V25.0657H125.915C126.535 25.0657 127.103 25.1728 127.618 25.387C128.137 25.5966 128.586 25.9019 128.964 26.303C129.347 26.6995 129.641 27.1757 129.846 27.7317C130.056 28.2877 130.161 28.9075 130.161 29.5911V30.5002C130.161 31.1838 130.056 31.8036 129.846 32.3596C129.641 32.9156 129.347 33.3918 128.964 33.7883C128.581 34.1848 128.128 34.4902 127.604 34.7043C127.08 34.914 126.496 35.0188 125.854 35.0188ZM123.974 25.0657V35.0188H123.133V25.0657H123.974Z" fill="white"/>
<path d="M137.532 25.0657V35.0188H136.692V25.0657H137.532Z" fill="white"/>
<path d="M151.85 25.0657V35.0188H151.002L145.28 26.5149V35.0188H144.439V25.0657H145.28L151.016 33.5696V25.0657H151.85Z" fill="white"/>
<path d="M165.77 30.2883V33.8293C165.656 33.998 165.46 34.1848 165.182 34.3899C164.904 34.595 164.531 34.775 164.061 34.9299C163.592 35.0803 163.009 35.1555 162.311 35.1555C161.728 35.1555 161.193 35.0507 160.705 34.8411C160.217 34.6314 159.793 34.3284 159.433 33.9319C159.078 33.5308 158.802 33.05 158.606 32.4895C158.415 31.929 158.319 31.3 158.319 30.6028V29.3997C158.319 28.7161 158.408 28.1008 158.586 27.554C158.763 27.0025 159.021 26.5308 159.358 26.1389C159.695 25.747 160.101 25.4485 160.575 25.2434C161.054 25.0338 161.589 24.929 162.181 24.929C162.92 24.929 163.542 25.0566 164.048 25.3118C164.554 25.567 164.948 25.9179 165.23 26.3645C165.517 26.8066 165.695 27.3079 165.763 27.8684H164.923C164.859 27.4719 164.727 27.1073 164.526 26.7747C164.326 26.4374 164.034 26.1663 163.651 25.9612C163.273 25.7561 162.783 25.6536 162.181 25.6536C161.698 25.6536 161.268 25.7424 160.889 25.9202C160.516 26.0979 160.201 26.3508 159.946 26.679C159.691 27.0071 159.497 27.4013 159.365 27.8616C159.233 28.3173 159.167 28.8254 159.167 29.386V30.6028C159.167 31.1861 159.24 31.7125 159.386 32.1819C159.536 32.6513 159.75 33.0546 160.028 33.3918C160.306 33.7291 160.639 33.9889 161.026 34.1711C161.414 34.3489 161.844 34.4377 162.318 34.4377C162.824 34.4377 163.255 34.3899 163.61 34.2942C163.966 34.1985 164.25 34.0846 164.465 33.9524C164.683 33.8157 164.841 33.6881 164.936 33.5696V31.0061H162.263V30.2883H165.77Z" fill="white"/>
</svg>
