<svg width="32" height="32" viewBox="0 0 32 32" fill="none" xmlns="http://www.w3.org/2000/svg">
<g id="Right Icon">
<path id="Vector" d="M26.354 12.3535L16.354 22.3535C16.3076 22.4 16.2524 22.4369 16.1917 22.4621C16.1311 22.4872 16.066 22.5002 16.0003 22.5002C15.9346 22.5002 15.8695 22.4872 15.8088 22.4621C15.7481 22.4369 15.693 22.4 15.6465 22.3535L5.64653 12.3535C5.60007 12.3071 5.56322 12.2519 5.53808 12.1912C5.51294 12.1305 5.5 12.0655 5.5 11.9998C5.5 11.9341 5.51294 11.869 5.53808 11.8083C5.56322 11.7476 5.60007 11.6925 5.64653 11.646C5.74035 11.5522 5.8676 11.4995 6.00028 11.4995C6.06598 11.4995 6.13103 11.5125 6.19173 11.5376C6.25242 11.5627 6.30757 11.5996 6.35403 11.646L16.0003 21.2923L25.6465 11.646C25.693 11.5996 25.7481 11.5627 25.8088 11.5376C25.8695 11.5125 25.9346 11.4995 26.0003 11.4995C26.066 11.4995 26.131 11.5125 26.1917 11.5376C26.2524 11.5627 26.3076 11.5996 26.354 11.646C26.4005 11.6925 26.4373 11.7476 26.4625 11.8083C26.4876 11.869 26.5006 11.9341 26.5006 11.9998C26.5006 12.0655 26.4876 12.1305 26.4625 12.1912C26.4373 12.2519 26.4005 12.3071 26.354 12.3535Z" fill="#94764D"/>
</g>
</svg>
