<svg width="876" height="631" viewBox="0 0 876 631" fill="none" xmlns="http://www.w3.org/2000/svg">
<path d="M1.42152 19.2119L1.13121 19.6525L1.34594 20.1345L0.905367 19.8442L0.423416 20.0589L0.713724 19.6183L0.498995 19.1364L0.93957 19.4267L1.42152 19.2119Z" fill="white"/>
<path d="M126.701 56.7869L126.411 57.2275L126.625 57.7094L126.185 57.4191L125.703 57.6338L125.993 57.1933L125.778 56.7113L126.219 57.0016L126.701 56.7869Z" fill="white"/>
<path d="M50.1227 99.9844L49.8324 100.425L50.0471 100.907L49.6065 100.617L49.1246 100.831L49.4149 100.391L49.2002 99.9088L49.6407 100.199L50.1227 99.9844Z" fill="white"/>
<path d="M61.9049 31.2608L61.6146 31.7013L61.8293 32.1833L61.3888 31.893L60.9068 32.1077L61.1971 31.6671L60.9824 31.1852L61.423 31.4755L61.9049 31.2608Z" fill="white"/>
<path d="M25.9069 47.6236L25.6166 48.0641L25.8313 48.5461L25.3907 48.2558L24.9088 48.4705L25.1991 48.0299L24.9843 47.548L25.4249 47.8383L25.9069 47.6236Z" fill="white"/>
<path d="M253.675 88.8577L253.385 89.2983L253.6 89.7802L253.159 89.4899L252.677 89.7046L252.968 89.2641L252.753 88.7821L253.193 89.0724L253.675 88.8577Z" fill="white"/>
<path d="M139.137 20.7888L138.847 21.2294L139.062 21.7114L138.621 21.4211L138.139 21.6358L138.43 21.1952L138.215 20.7133L138.655 21.0036L139.137 20.7888Z" fill="white"/>
<path d="M416.649 58.7503L416.359 59.1908L416.573 59.6728L416.133 59.3825L415.651 59.5972L415.941 59.1566L415.727 58.6747L416.167 58.965L416.649 58.7503Z" fill="white"/>
<path d="M264.802 166.09L264.512 166.53L264.727 167.012L264.286 166.722L263.804 166.937L264.095 166.496L263.88 166.014L264.32 166.305L264.802 166.09Z" fill="white"/>
<path d="M138.482 114.384L138.192 114.824L138.406 115.306L137.966 115.016L137.484 115.231L137.774 114.79L137.56 114.308L138 114.599L138.482 114.384Z" fill="white"/>
<path d="M133.246 215.833L132.955 216.273L133.17 216.755L132.73 216.465L132.248 216.679L132.538 216.239L132.323 215.757L132.764 216.047L133.246 215.833Z" fill="white"/>
<path d="M524.642 206.669L524.352 207.11L524.567 207.592L524.126 207.302L523.644 207.516L523.934 207.076L523.72 206.594L524.16 206.884L524.642 206.669Z" fill="white"/>
<path d="M650.963 77.7312L650.672 78.1718L650.887 78.6538L650.446 78.3634L649.964 78.5782L650.255 78.1376L650.04 77.6557L650.481 77.946L650.963 77.7312Z" fill="white"/>
<path d="M830.953 192.925L830.662 193.365L830.877 193.847L830.437 193.557L829.955 193.772L830.245 193.331L830.03 192.849L830.471 193.14L830.953 192.925Z" fill="white"/>
<path d="M748.484 398.44L748.194 398.881L748.408 399.363L747.968 399.073L747.486 399.287L747.776 398.847L747.561 398.365L748.002 398.655L748.484 398.44Z" fill="white"/>
<path d="M832.917 529.343L832.626 529.783L832.841 530.265L832.4 529.975L831.919 530.189L832.209 529.749L831.994 529.267L832.435 529.557L832.917 529.343Z" fill="white"/>
<path d="M630.673 552.251L630.382 552.691L630.597 553.173L630.156 552.883L629.674 553.097L629.965 552.657L629.75 552.175L630.191 552.465L630.673 552.251Z" fill="white"/>
<path d="M397.668 527.379L397.377 527.82L397.592 528.301L397.151 528.011L396.67 528.226L396.96 527.785L396.745 527.303L397.186 527.594L397.668 527.379Z" fill="white"/>
<path d="M512.861 279.32L512.571 279.761L512.785 280.243L512.345 279.952L511.863 280.167L512.153 279.726L511.938 279.245L512.379 279.535L512.861 279.32Z" fill="white"/>
<path d="M334.835 227.614L334.544 228.054L334.759 228.536L334.318 228.246L333.837 228.461L334.127 228.02L333.912 227.538L334.353 227.829L334.835 227.614Z" fill="white"/>
<path d="M198.043 475.018L197.752 475.459L197.967 475.941L197.526 475.651L197.045 475.865L197.335 475.425L197.12 474.943L197.561 475.233L198.043 475.018Z" fill="white"/>
<path d="M38.9967 400.404L38.7064 400.845L38.9211 401.327L38.4806 401.037L37.9986 401.251L38.2889 400.811L38.0742 400.329L38.5148 400.619L38.9967 400.404Z" fill="white"/>
<path d="M40.9596 173.29L40.6693 173.73L40.884 174.212L40.4435 173.922L39.9615 174.137L40.2518 173.696L40.0371 173.214L40.4777 173.504L40.9596 173.29Z" fill="white"/>
<path d="M251.713 194.888L251.422 195.329L251.637 195.811L251.196 195.52L250.714 195.735L251.005 195.295L250.79 194.813L251.231 195.103L251.713 194.888Z" fill="white"/>
<path d="M622.819 196.852L622.529 197.292L622.743 197.774L622.303 197.484L621.821 197.699L622.111 197.258L621.896 196.776L622.337 197.067L622.819 196.852Z" fill="white"/>
<path d="M551.477 350.662L551.187 351.102L551.402 351.584L550.961 351.294L550.479 351.509L550.769 351.068L550.555 350.586L550.995 350.876L551.477 350.662Z" fill="white"/>
<path d="M464.428 431.166L464.138 431.607L464.353 432.089L463.912 431.798L463.43 432.013L463.721 431.572L463.506 431.09L463.946 431.381L464.428 431.166Z" fill="white"/>
<path d="M343.998 249.212L343.707 249.653L343.922 250.135L343.482 249.845L343 250.059L343.29 249.619L343.075 249.137L343.516 249.427L343.998 249.212Z" fill="white"/>
<path d="M486.026 130.747L485.736 131.187L485.95 131.669L485.51 131.379L485.028 131.594L485.318 131.153L485.103 130.671L485.544 130.961L486.026 130.747Z" fill="white"/>
<path d="M63.8678 467.819L63.5775 468.259L63.7922 468.741L63.3517 468.451L62.8697 468.666L63.16 468.225L62.9453 467.743L63.3859 468.033L63.8678 467.819Z" fill="white"/>
<path d="M48.1598 270.157L47.8695 270.597L48.0842 271.079L47.6436 270.789L47.1617 271.004L47.452 270.563L47.2373 270.081L47.6779 270.371L48.1598 270.157Z" fill="white"/>
<path d="M408.795 262.957L408.504 263.398L408.719 263.88L408.278 263.59L407.796 263.804L408.087 263.364L407.872 262.882L408.313 263.172L408.795 262.957Z" fill="white"/>
<path d="M553.441 541.124L553.151 541.564L553.365 542.046L552.925 541.756L552.443 541.97L552.733 541.53L552.519 541.048L552.959 541.338L553.441 541.124Z" fill="white"/>
<path d="M306.037 598.72L305.746 599.161L305.961 599.643L305.521 599.353L305.039 599.567L305.329 599.127L305.114 598.645L305.555 598.935L306.037 598.72Z" fill="white"/>
<path d="M304.073 357.207L303.783 357.647L303.997 358.129L303.557 357.839L303.075 358.054L303.365 357.613L303.15 357.131L303.591 357.422L304.073 357.207Z" fill="white"/>
<path d="M811.972 60.7139L811.682 61.1545L811.897 61.6364L811.456 61.3461L810.974 61.5608L811.265 61.1202L811.05 60.6383L811.49 60.9286L811.972 60.7139Z" fill="white"/>
<path d="M867.605 33.2246L867.315 33.6652L867.53 34.1471L867.089 33.8568L866.607 34.0716L866.897 33.631L866.683 33.149L867.123 33.4394L867.605 33.2246Z" fill="white"/>
<path d="M874.804 550.287L874.514 550.728L874.729 551.21L874.288 550.919L873.806 551.134L874.097 550.693L873.882 550.212L874.322 550.502L874.804 550.287Z" fill="white"/>
<path d="M739.976 629.482L739.686 629.923L739.901 630.405L739.46 630.115L738.978 630.329L739.268 629.889L739.054 629.407L739.494 629.697L739.976 629.482Z" fill="white"/>
<path d="M651.618 347.389L651.328 347.83L651.542 348.311L651.102 348.021L650.62 348.236L650.91 347.795L650.695 347.313L651.136 347.604L651.618 347.389Z" fill="white"/>
<path d="M373.874 402.212L373.294 403.093L373.723 404.057L372.842 403.477L371.878 403.906L372.459 403.025L372.029 402.061L372.91 402.642L373.874 402.212Z" fill="white"/>
<path d="M211.9 290.946L211.319 291.827L211.749 292.791L210.867 292.21L209.903 292.64L210.484 291.758L210.055 290.794L210.936 291.375L211.9 290.946Z" fill="white"/>
<path d="M603.296 102.447L602.716 103.328L603.145 104.292L602.264 103.711L601.3 104.141L601.881 103.26L601.451 102.296L602.332 102.877L603.296 102.447Z" fill="white"/>
<path d="M450.796 19.9791L450.216 20.8602L450.645 21.8241L449.764 21.2435L448.8 21.673L449.381 20.7918L448.951 19.8279L449.832 20.4085L450.796 19.9791Z" fill="white"/>
<path d="M308.112 21.9424L307.531 22.8236L307.96 23.7875L307.079 23.2069L306.115 23.6363L306.696 22.7552L306.267 21.7913L307.148 22.3719L308.112 21.9424Z" fill="white"/>
<path d="M719.144 0.998106L718.563 1.87926L718.993 2.84316L718.112 2.26254L717.148 2.692L717.728 1.81085L717.299 0.846949L718.18 1.42757L719.144 0.998106Z" fill="white"/>
<path d="M586.933 404.176L586.352 405.057L586.782 406.021L585.901 405.44L584.937 405.87L585.517 404.989L585.088 404.025L585.969 404.605L586.933 404.176Z" fill="white"/>
<path d="M130.086 388.468L129.506 389.349L129.935 390.313L129.054 389.732L128.09 390.161L128.671 389.28L128.241 388.316L129.122 388.897L130.086 388.468Z" fill="white"/>
<path d="M108.487 595.293L107.906 596.174L108.335 597.138L107.454 596.557L106.49 596.986L107.071 596.105L106.642 595.141L107.523 595.722L108.487 595.293Z" fill="white"/>
<path d="M36.4905 349.852L35.9099 350.733L36.3393 351.697L35.4582 351.116L34.4943 351.546L35.0749 350.664L34.6454 349.7L35.5266 350.281L36.4905 349.852Z" fill="white"/>
<path d="M29.2913 554.713L28.7107 555.594L29.1401 556.558L28.259 555.977L27.2951 556.407L27.8757 555.526L27.4462 554.562L28.3274 555.142L29.2913 554.713Z" fill="white"/>
<path d="M4.42019 197.351L3.83957 198.232L4.26903 199.196L3.38788 198.615L2.42398 199.045L3.0046 198.164L2.57514 197.2L3.45629 197.78L4.42019 197.351Z" fill="white"/>
</svg>
