<svg width="1338" height="964" viewBox="0 0 1338 964" fill="none" xmlns="http://www.w3.org/2000/svg">
<path d="M2.31498 29.3523L1.87143 30.0255L2.1995 30.7618L1.52637 30.3183L0.790012 30.6463L1.23356 29.9732L0.905486 29.2369L1.57862 29.6804L2.31498 29.3523Z" fill="white"/>
<path d="M193.723 86.7625L193.28 87.4356L193.608 88.172L192.935 87.7284L192.198 88.0565L192.642 87.3834L192.314 86.647L192.987 87.0906L193.723 86.7625Z" fill="white"/>
<path d="M76.7232 152.762L76.2796 153.436L76.6077 154.172L75.9346 153.728L75.1982 154.056L75.6418 153.383L75.3137 152.647L75.9868 153.091L76.7232 152.762Z" fill="white"/>
<path d="M94.7232 47.7625L94.2796 48.4356L94.6077 49.172L93.9346 48.7284L93.1982 49.0565L93.6418 48.3834L93.3137 47.647L93.9868 48.0906L94.7232 47.7625Z" fill="white"/>
<path d="M39.7232 72.7625L39.2796 73.4356L39.6077 74.172L38.9346 73.7284L38.1982 74.0565L38.6418 73.3834L38.3137 72.647L38.9868 73.0906L39.7232 72.7625Z" fill="white"/>
<path d="M387.723 135.762L387.28 136.436L387.608 137.172L386.935 136.728L386.198 137.056L386.642 136.383L386.314 135.647L386.987 136.091L387.723 135.762Z" fill="white"/>
<path d="M212.723 31.7625L212.28 32.4356L212.608 33.172L211.935 32.7284L211.198 33.0565L211.642 32.3834L211.314 31.647L211.987 32.0906L212.723 31.7625Z" fill="white"/>
<path d="M636.723 89.7625L636.28 90.4356L636.608 91.172L635.935 90.7284L635.198 91.0565L635.642 90.3834L635.314 89.647L635.987 90.0906L636.723 89.7625Z" fill="white"/>
<path d="M404.723 253.762L404.28 254.436L404.608 255.172L403.935 254.728L403.198 255.056L403.642 254.383L403.314 253.647L403.987 254.091L404.723 253.762Z" fill="white"/>
<path d="M211.723 174.762L211.28 175.436L211.608 176.172L210.935 175.728L210.198 176.056L210.642 175.383L210.314 174.647L210.987 175.091L211.723 174.762Z" fill="white"/>
<path d="M203.723 329.762L203.28 330.436L203.608 331.172L202.935 330.728L202.198 331.056L202.642 330.383L202.314 329.647L202.987 330.091L203.723 329.762Z" fill="white"/>
<path d="M801.723 315.762L801.28 316.436L801.608 317.172L800.935 316.728L800.198 317.056L800.642 316.383L800.314 315.647L800.987 316.091L801.723 315.762Z" fill="white"/>
<path d="M994.723 118.762L994.28 119.436L994.608 120.172L993.935 119.728L993.198 120.056L993.642 119.383L993.314 118.647L993.987 119.091L994.723 118.762Z" fill="white"/>
<path d="M1269.72 294.762L1269.28 295.436L1269.61 296.172L1268.93 295.728L1268.2 296.056L1268.64 295.383L1268.31 294.647L1268.99 295.091L1269.72 294.762Z" fill="white"/>
<path d="M1143.72 608.762L1143.28 609.436L1143.61 610.172L1142.93 609.728L1142.2 610.056L1142.64 609.383L1142.31 608.647L1142.99 609.091L1143.72 608.762Z" fill="white"/>
<path d="M1272.72 808.762L1272.28 809.436L1272.61 810.172L1271.93 809.728L1271.2 810.056L1271.64 809.383L1271.31 808.647L1271.99 809.091L1272.72 808.762Z" fill="white"/>
<path d="M963.723 843.762L963.28 844.436L963.608 845.172L962.935 844.728L962.198 845.056L962.642 844.383L962.314 843.647L962.987 844.091L963.723 843.762Z" fill="white"/>
<path d="M607.723 805.762L607.28 806.436L607.608 807.172L606.935 806.728L606.198 807.056L606.642 806.383L606.314 805.647L606.987 806.091L607.723 805.762Z" fill="white"/>
<path d="M783.723 426.762L783.28 427.436L783.608 428.172L782.935 427.728L782.198 428.056L782.642 427.383L782.314 426.647L782.987 427.091L783.723 426.762Z" fill="white"/>
<path d="M511.723 347.762L511.28 348.436L511.608 349.172L510.935 348.728L510.198 349.056L510.642 348.383L510.314 347.647L510.987 348.091L511.723 347.762Z" fill="white"/>
<path d="M302.723 725.762L302.28 726.436L302.608 727.172L301.935 726.728L301.198 727.056L301.642 726.383L301.314 725.647L301.987 726.091L302.723 725.762Z" fill="white"/>
<path d="M59.7232 611.762L59.2796 612.436L59.6077 613.172L58.9346 612.728L58.1982 613.056L58.6418 612.383L58.3137 611.647L58.9868 612.091L59.7232 611.762Z" fill="white"/>
<path d="M62.7232 264.762L62.2796 265.436L62.6077 266.172L61.9346 265.728L61.1982 266.056L61.6418 265.383L61.3137 264.647L61.9868 265.091L62.7232 264.762Z" fill="white"/>
<path d="M384.723 297.762L384.28 298.436L384.608 299.172L383.935 298.728L383.198 299.056L383.642 298.383L383.314 297.647L383.987 298.091L384.723 297.762Z" fill="white"/>
<path d="M951.723 300.762L951.28 301.436L951.608 302.172L950.935 301.728L950.198 302.056L950.642 301.383L950.314 300.647L950.987 301.091L951.723 300.762Z" fill="white"/>
<path d="M842.723 535.762L842.28 536.436L842.608 537.172L841.935 536.728L841.198 537.056L841.642 536.383L841.314 535.647L841.987 536.091L842.723 535.762Z" fill="white"/>
<path d="M709.723 658.762L709.28 659.436L709.608 660.172L708.935 659.728L708.198 660.056L708.642 659.383L708.314 658.647L708.987 659.091L709.723 658.762Z" fill="white"/>
<path d="M525.723 380.762L525.28 381.436L525.608 382.172L524.935 381.728L524.198 382.056L524.642 381.383L524.314 380.647L524.987 381.091L525.723 380.762Z" fill="white"/>
<path d="M742.723 199.762L742.28 200.436L742.608 201.172L741.935 200.728L741.198 201.056L741.642 200.383L741.314 199.647L741.987 200.091L742.723 199.762Z" fill="white"/>
<path d="M97.7232 714.762L97.2796 715.436L97.6077 716.172L96.9346 715.728L96.1982 716.056L96.6418 715.383L96.3137 714.647L96.9868 715.091L97.7232 714.762Z" fill="white"/>
<path d="M73.7232 412.762L73.2796 413.436L73.6077 414.172L72.9346 413.728L72.1982 414.056L72.6418 413.383L72.3137 412.647L72.9868 413.091L73.7232 412.762Z" fill="white"/>
<path d="M624.723 401.762L624.28 402.436L624.608 403.172L623.935 402.728L623.198 403.056L623.642 402.383L623.314 401.647L623.987 402.091L624.723 401.762Z" fill="white"/>
<path d="M845.723 826.762L845.28 827.436L845.608 828.172L844.935 827.728L844.198 828.056L844.642 827.383L844.314 826.647L844.987 827.091L845.723 826.762Z" fill="white"/>
<path d="M467.723 914.762L467.28 915.436L467.608 916.172L466.935 915.728L466.198 916.056L466.642 915.383L466.314 914.647L466.987 915.091L467.723 914.762Z" fill="white"/>
<path d="M464.723 545.762L464.28 546.436L464.608 547.172L463.935 546.728L463.198 547.056L463.642 546.383L463.314 545.647L463.987 546.091L464.723 545.762Z" fill="white"/>
<path d="M1240.72 92.7625L1240.28 93.4356L1240.61 94.172L1239.93 93.7284L1239.2 94.0565L1239.64 93.3834L1239.31 92.647L1239.99 93.0906L1240.72 92.7625Z" fill="white"/>
<path d="M1325.72 50.7625L1325.28 51.4356L1325.61 52.172L1324.93 51.7284L1324.2 52.0565L1324.64 51.3834L1324.31 50.647L1324.99 51.0906L1325.72 50.7625Z" fill="white"/>
<path d="M1336.72 840.762L1336.28 841.436L1336.61 842.172L1335.93 841.728L1335.2 842.056L1335.64 841.383L1335.31 840.647L1335.99 841.091L1336.72 840.762Z" fill="white"/>
<path d="M1130.72 961.762L1130.28 962.436L1130.61 963.172L1129.93 962.728L1129.2 963.056L1129.64 962.383L1129.31 961.647L1129.99 962.091L1130.72 961.762Z" fill="white"/>
<path d="M995.723 530.762L995.28 531.436L995.608 532.172L994.935 531.728L994.198 532.056L994.642 531.383L994.314 530.647L994.987 531.091L995.723 530.762Z" fill="white"/>
<path d="M571.37 614.525L570.483 615.871L571.139 617.344L569.793 616.457L568.32 617.113L569.207 615.767L568.551 614.294L569.897 615.181L571.37 614.525Z" fill="white"/>
<path d="M323.896 444.525L323.008 445.871L323.665 447.344L322.318 446.457L320.846 447.113L321.733 445.767L321.077 444.294L322.423 445.181L323.896 444.525Z" fill="white"/>
<path d="M921.896 156.525L921.008 157.871L921.665 159.344L920.318 158.457L918.846 159.113L919.733 157.767L919.077 156.294L920.423 157.181L921.896 156.525Z" fill="white"/>
<path d="M688.896 30.525L688.008 31.8712L688.665 33.3439L687.318 32.4568L685.846 33.113L686.733 31.7667L686.077 30.294L687.423 31.1811L688.896 30.525Z" fill="white"/>
<path d="M470.896 33.525L470.008 34.8712L470.665 36.3439L469.318 35.4568L467.846 36.113L468.733 34.7667L468.077 33.294L469.423 34.1811L470.896 33.525Z" fill="white"/>
<path d="M1098.9 1.52497L1098.01 2.87124L1098.66 4.34395L1097.32 3.45685L1095.85 4.113L1096.73 2.76673L1096.08 1.29402L1097.42 2.18112L1098.9 1.52497Z" fill="white"/>
<path d="M896.896 617.525L896.008 618.871L896.665 620.344L895.318 619.457L893.846 620.113L894.733 618.767L894.077 617.294L895.423 618.181L896.896 617.525Z" fill="white"/>
<path d="M198.896 593.525L198.008 594.871L198.665 596.344L197.318 595.457L195.846 596.113L196.733 594.767L196.077 593.294L197.423 594.181L198.896 593.525Z" fill="white"/>
<path d="M165.896 909.525L165.008 910.871L165.665 912.344L164.318 911.457L162.846 912.113L163.733 910.767L163.077 909.294L164.423 910.181L165.896 909.525Z" fill="white"/>
<path d="M55.8956 534.525L55.0085 535.871L55.6646 537.344L54.3184 536.457L52.8456 537.113L53.7328 535.767L53.0766 534.294L54.4229 535.181L55.8956 534.525Z" fill="white"/>
<path d="M44.8956 847.525L44.0085 848.871L44.6646 850.344L43.3184 849.457L41.8456 850.113L42.7328 848.767L42.0766 847.294L43.4229 848.181L44.8956 847.525Z" fill="white"/>
<path d="M6.89558 301.525L6.00848 302.871L6.66463 304.344L5.31836 303.457L3.84565 304.113L4.73275 302.767L4.0766 301.294L5.42287 302.181L6.89558 301.525Z" fill="white"/>
</svg>
